<svg width="329" height="329" viewBox="0 0 329 329" fill="none" xmlns="http://www.w3.org/2000/svg">
<path d="M164.44 0C255.258 0.000181425 328.88 73.6228 328.88 164.44C328.88 255.258 255.258 328.88 164.44 328.88C73.6228 328.88 0.000181472 255.258 0 164.44C0 73.6227 73.6227 0 164.44 0Z" fill="black" style="fill:black;fill-opacity:1;"/>
<path d="M164.44 142.076C176.791 142.076 186.803 152.089 186.803 164.44C186.803 176.791 176.791 186.803 164.44 186.803C152.089 186.803 142.076 176.791 142.076 164.44C142.076 152.089 152.089 142.076 164.44 142.076Z" fill="white" style="fill:white;fill-opacity:1;"/>
<path d="M268.872 142.076C281.223 142.076 291.235 152.089 291.235 164.44C291.235 176.791 281.223 186.803 268.872 186.803C256.521 186.803 246.508 176.791 246.508 164.44C246.508 152.089 256.521 142.076 268.872 142.076Z" fill="white" style="fill:white;fill-opacity:1;"/>
</svg>
